<svg id="Layer_1" data-name="Layer 1" xmlns="http://www.w3.org/2000/svg" viewBox="0 0 900 650"><defs><style>.cls-1{fill:#4a4040;}.cls-2{fill:#fff;}</style></defs><title>logo</title><path class="cls-1" d="M448.11,196.47A210.65,210.65,0,0,1,584,245.9c.26-3.43.44-6.88.44-10.38a134.47,134.47,0,0,0-268.94,0c0,2.52.08,5,.22,7.5A210.63,210.63,0,0,1,448.11,196.47Z"/><circle class="cls-1" cx="449.27" cy="419.45" r="211.55"/><path class="cls-1" d="M296.14,206.48C121.86,240.9,5.41,391.5,5.68,400.11H63.77c66.7-81.75,180.73-135.54,180.73-135.54C258.09,245.24,283.23,217.23,296.14,206.48Z"/><path class="cls-1" d="M5.68,400.11H63.77c2.85-2.86,44.59,110.3,178.58,152.76C266,598.05,298.29,611,298.29,611,299.19,612.26,81,589.45,5.68,400.11Z"/><rect class="cls-1" x="378.05" y="50.25" width="12.91" height="66.7" transform="translate(-2.62 154.06) rotate(-22.58)"/><rect class="cls-1" x="345.23" y="19.37" width="43.03" height="43.03" rx="21.52" transform="translate(12.42 143.96) rotate(-22.58)"/><rect class="cls-1" x="512.56" y="50.57" width="12.91" height="66.7" transform="translate(966.01 360.71) rotate(-157.42)"/><rect class="cls-1" x="515.26" y="19.69" width="43.03" height="43.03" rx="21.52" transform="translate(1016.57 285.38) rotate(-157.42)"/><path class="cls-1" d="M604.55,206.48C778.82,240.9,895.28,391.5,895,400.11H836.91c-66.7-81.75-180.73-135.54-180.73-135.54C642.59,245.24,617.45,217.23,604.55,206.48Z"/><path class="cls-1" d="M895,400.11H836.91c-2.85-2.86-44.58,110.3-178.58,152.76C634.67,598.05,602.39,611,602.39,611,601.49,612.26,819.7,589.45,895,400.11Z"/><circle class="cls-2" cx="488" cy="379" r="62"/><circle class="cls-2" cx="550" cy="303" r="23"/></svg>